<?xml version="1.0" encoding="utf-8"?>
<!-- Generator: Adobe Illustrator 26.3.1, SVG Export Plug-In . SVG Version: 6.00 Build 0)  -->
<svg version="1.1" id="Layer_1" xmlns="http://www.w3.org/2000/svg" xmlns:xlink="http://www.w3.org/1999/xlink" x="0px" y="0px"
	 viewBox="0 0 140.5 117.1" style="enable-background:new 0 0 140.5 117.1;" xml:space="preserve">
<style type="text/css">
	.st0{fill:#EEEEDA;}
	.st1{fill:#F0D7C4;}
	.st2{fill:none;stroke:#E30613;stroke-width:3;stroke-miterlimit:10;}
	.st3{fill:#FFFFFF;}
	.st4{fill:none;stroke:#E52219;stroke-width:2;stroke-miterlimit:10;}
</style>
<g>
	<rect y="0" class="st0" width="140.5" height="117.1"/>
	<rect x="31.5" y="23.3" class="st1" width="77.6" height="70.4"/>
	<rect x="31.5" y="23.3" class="st2" width="77.6" height="70.4"/>
	<path class="st3" d="M28.7,19.2h5.6c0.8,0,1.4,0.6,1.4,1.4v5.5c0,0.8-0.6,1.4-1.4,1.4h-5.6c-0.8,0-1.4-0.6-1.4-1.4v-5.5
		C27.3,19.8,27.9,19.2,28.7,19.2z"/>
	<path class="st4" d="M28.7,19.2h5.6c0.8,0,1.4,0.6,1.4,1.4v5.5c0,0.8-0.6,1.4-1.4,1.4h-5.6c-0.8,0-1.4-0.6-1.4-1.4v-5.5
		C27.3,19.8,27.9,19.2,28.7,19.2z"/>
	<path class="st3" d="M106.3,19.2h5.6c0.8,0,1.4,0.6,1.4,1.4v5.5c0,0.8-0.6,1.4-1.4,1.4h-5.6c-0.8,0-1.4-0.6-1.4-1.4v-5.5
		C104.8,19.8,105.5,19.2,106.3,19.2z"/>
	<path class="st4" d="M106.3,19.2h5.6c0.8,0,1.4,0.6,1.4,1.4v5.5c0,0.8-0.6,1.4-1.4,1.4h-5.6c-0.8,0-1.4-0.6-1.4-1.4v-5.5
		C104.8,19.8,105.5,19.2,106.3,19.2z"/>
	<path class="st3" d="M106.3,89.5h5.6c0.8,0,1.4,0.6,1.4,1.4v5.5c0,0.8-0.6,1.4-1.4,1.4h-5.6c-0.8,0-1.4-0.6-1.4-1.4V91
		C104.8,90.2,105.5,89.5,106.3,89.5z"/>
	<path class="st4" d="M106.3,89.5h5.6c0.8,0,1.4,0.6,1.4,1.4v5.5c0,0.8-0.6,1.4-1.4,1.4h-5.6c-0.8,0-1.4-0.6-1.4-1.4V91
		C104.8,90.2,105.5,89.5,106.3,89.5z"/>
	<path class="st3" d="M28.7,89.5h5.6c0.8,0,1.4,0.6,1.4,1.4v5.5c0,0.8-0.6,1.4-1.4,1.4h-5.6c-0.8,0-1.4-0.6-1.4-1.4V91
		C27.3,90.2,27.9,89.5,28.7,89.5z"/>
	<path class="st4" d="M28.7,89.5h5.6c0.8,0,1.4,0.6,1.4,1.4v5.5c0,0.8-0.6,1.4-1.4,1.4h-5.6c-0.8,0-1.4-0.6-1.4-1.4V91
		C27.3,90.2,27.9,89.5,28.7,89.5z"/>
</g>
</svg>
